<svg xmlns="http://www.w3.org/2000/svg" width="119.925" height="38.376" viewBox="0 0 119.925 38.376">
  <g id="Logo_Bud" data-name="Logo / Bud" transform="translate(-238.015 -41.039)">
    <path id="Path_152" data-name="Path 152" d="M257.584,53.528l1.446-2c.024-.037.047-.067.069-.1a16.924,16.924,0,0,0-6.028-1.121c-3.519,0-5.667,1.428-5.673,3.456a2.119,2.119,0,0,0,.538,1.462l.041-.007c-.005-.006-.014-.012-.02-.018a2.338,2.338,0,0,1-.09-.653c.005-2.028,2.152-3.457,5.673-3.457.357,0,.7.016,1.041.037l-3.344,5.151A8.452,8.452,0,0,0,257.584,53.528Z" transform="translate(0.531 0.524)" fill="#ce0e2d"/>
    <path id="Path_153" data-name="Path 153" d="M252.165,65.6a.288.288,0,0,0,.323.305,1.7,1.7,0,0,0,1-.549,34.8,34.8,0,0,0,4.366-5.678c1.7-2.484,3.389-5.152,4.561-6.745-.492-.26-1-.508-1.5-.74-.559.782-1.163,1.646-1.694,2.428-1.684,2.476-6.047,8.929-6.541,9.77A2.739,2.739,0,0,0,252.165,65.6Z" transform="translate(0.8 0.631)" fill="#ce0e2d"/>
    <path id="Path_154" data-name="Path 154" d="M265.377,56.144a5.71,5.71,0,0,0,3.114-4.414c0-.81-.319-1.461-1.357-1.461-1.575,0-2.976,1.506-3.881,2.665a13.935,13.935,0,0,1,1.685,1.164l-.392.5a13.225,13.225,0,0,0-1.686-1.156c-.987,1.318-3.235,4.8-4.786,7.07a6.118,6.118,0,0,1,3.185-.9v.63c-2.975.049-4.822,2.051-4.822,4.123,0,1.116.6,1.89,2.207,1.89,3.733,0,6.3-4,6.3-6.625,0-1.19-.428-2.249-2.311-2.249h-.875a2.607,2.607,0,0,0-.689.051l.536-.826A9.388,9.388,0,0,0,265.377,56.144Z" transform="translate(1.042 0.522)" fill="#ce0e2d"/>
    <path id="Path_155" data-name="Path 155" d="M283.078,59.477c-1.058,1.36-2.168,3.34-2.168,4.212,0,.265.133.446.478.446.468,0,1.254-.39,2.351-1.615a26.416,26.416,0,0,0,3.108-4.117.82.82,0,0,0,.118-.4.743.743,0,0,0-.829-.774C285.215,57.228,284.187,58.049,283.078,59.477Z" transform="translate(2.426 0.916)" fill="#ce0e2d"/>
    <path id="Path_156" data-name="Path 156" d="M259.056,51.411c.2-.278.372-.505.549-.733l2.78-.118c-.257.354-.718.987-1.253,1.736.506.236,1.016.49,1.511.753,1.714-2.177,3.306-3.161,5.387-3.161,2.247,0,3.088,1.3,3.088,2.612a6.039,6.039,0,0,1-1.491,3.349,7.146,7.146,0,0,1-3.3,1.761c-.139.039-.6.139-.6.139a2.916,2.916,0,0,1,1.942,2.841,6.934,6.934,0,0,1-1.833,4.291A30.068,30.068,0,0,0,272,59.44c.3-.371.839-1.118,1.117-1.51l2.422-.149s-3.09,4.673-3.758,5.822c-.375.649-.485.929-.473,1.175.008.17.135.283.368.283.886,0,2.7-1.585,3.963-3.216.575-.748,2.652-3.9,2.652-3.9l2.461-.153c-1.994,3.061-2.645,4.089-2.645,4.089a12.426,12.426,0,0,0-1.328,2.452c-.144.492-.05.734.287.734.716,0,2.188-1.063,4.554-4.113l.236-.3c1.5-1.9,3.326-3.215,5.3-3.215a1.846,1.846,0,0,1,1.786.929c1.621-2.664,2.632-4.33,3.264-5.372L261.039,41.039l-6.052,9.324A18.969,18.969,0,0,1,259.056,51.411Z" transform="translate(0.96)" fill="#ce0e2d"/>
    <path id="Path_157" data-name="Path 157" d="M309.579,57.479a.373.373,0,0,0-.425-.392c-1.1,0-2.528,1.96-3.617,3.949C307.374,60.738,309.579,58.944,309.579,57.479Z" transform="translate(3.819 0.908)" fill="#ce0e2d"/>
    <path id="Path_158" data-name="Path 158" d="M329.551,57.495c0-.256-.107-.408-.372-.408-.949,0-2.275,1.443-3.642,3.939C327.37,60.725,329.551,58.849,329.551,57.495Z" transform="translate(4.95 0.908)" fill="#ce0e2d"/>
    <path id="Path_159" data-name="Path 159" d="M345.808,61.946l-.037-.091-.011,0-.038-.091-.009,0-.037-.092-.01,0-.038-.091-.01,0-.038-.091-.008,0-.038-.091-.011,0-.037-.092-.01.005-.038-.092-.01,0-.038-.091-.024.012L357.94,41.8,296.688,52.6c.147-.243.277-.457.378-.627l-.426-.784-.049.008c-.738,1.235-2.853,4.676-3.6,5.885-1.673,2.724-2.666,4.394-3.309,5.551a5.546,5.546,0,0,0-.79,2c0,.242.1.41.385.41.8,0,2.38-1.191,5.666-5.327.3-.377,1.069-1.452,1.34-1.855l2.345-.117c-1.308,1.96-3.113,4.621-3.863,6.026a2.169,2.169,0,0,0-.353.913c0,.179.092.344.387.344.89,0,2.545-1.3,4.989-4.758.584-.824,1.047-1.558,1.6-2.4l2.316-.126c-.652,1.044-1.974,3.227-2.111,3.45-1.1,1.79-1.687,2.923-1.687,3.435a.4.4,0,0,0,.443.4c1.537,0,3.991-3.034,4.553-4.662a4.743,4.743,0,0,1,.566-2.614,1.065,1.065,0,0,1,.923-.488c.363,0,.638.176.638.409a9.144,9.144,0,0,1-1.35,3.112,1.955,1.955,0,0,0,1.342,1.1,10.253,10.253,0,0,1,.574-.968c1.906-2.791,3.989-3.563,5.367-3.563,1,0,1.469.373,1.469,1.146,0,1.164-1.432,2.741-3.675,3.545a8.357,8.357,0,0,1-1.7.421,4.341,4.341,0,0,0-.516,1.725c0,.531.245.918,1.007.918,2.478,0,5.494-3.76,7.128-5.908.128-.162.763-1.036.94-1.328l2.329-.135c-1.936,3.05-2.572,4.1-2.572,4.1A8.962,8.962,0,0,0,316,64.628a.369.369,0,0,0,.4.421c.928,0,2.6-1.5,5.081-4.034,1.075-1.1,2.277-2.353,2.984-3.139.249-.908.726-1.345,1.324-1.345a.659.659,0,0,1,.7.691.951.951,0,0,1-.87.937,3.109,3.109,0,0,0-.026.406c0,.773.114,1.766.114,2.749a4.043,4.043,0,0,1-.741,2.564c1.207-.969,3.623-3.246,5.067-4.6a6.111,6.111,0,0,1,4.02-1.924c.939,0,1.487.333,1.487,1.146,0,1.172-1.236,2.5-3.252,3.373a8.105,8.105,0,0,1-2.113.583,4.305,4.305,0,0,0-.538,1.829c0,.517.362.824.941.824,1.68,0,3.251-1.788,4.584-3.48,2.117-2.688,3.111-4.125,4.717-4.125.848,0,1.273.44,1.273,1.066,0,.783-.381,1.435-1.125,2.8,2.5-3.2,3.694-3.849,4.561-3.849.641,0,.993.31,1,.736a2.712,2.712,0,0,0-1.772,2.362c0,.4.165.755.659.755a1.832,1.832,0,0,0,.866-.221l.188.452a3.188,3.188,0,0,1-1.511.345A1.43,1.43,0,0,1,342.4,60.5a2.718,2.718,0,0,1,.519-1.471,41.573,41.573,0,0,0-5.4,6.745l-2.337.089c.341-.577,2.709-4.11,4.083-6.591a1.609,1.609,0,0,0,.249-.756.236.236,0,0,0-.257-.259c-.722,0-1.967,1.562-3.586,3.643-1.185,1.526-3.179,4.159-6.04,4.159-1.518,0-2.164-.8-2.164-1.83a5.256,5.256,0,0,1,.822-2.577c-.722.643-1.38,1.245-2.033,1.833-1.313,1.179-3.068,2.619-5.362,2.619-1.228,0-2.013-.489-2.013-1.187a.551.551,0,0,1,.54-.588.685.685,0,0,1,.641.517.9.9,0,0,0,.929.694c1.477,0,2.3-1.582,2.858-4.66.086-.48.261-1.35.387-1.93-1.845,1.967-3.113,3.24-3.667,3.788-1.67,1.652-3.328,3.32-5.061,3.32-.987,0-1.6-.491-1.6-1.327a4.978,4.978,0,0,1,.893-2.388c-1.357,1.446-3.541,3.705-6.171,3.705-1.554,0-2.275-.766-2.275-1.92a4.439,4.439,0,0,1,.414-1.719,2.433,2.433,0,0,1-1.438-1.056,14.924,14.924,0,0,1-2.7,3.206,5,5,0,0,1-3.179,1.484c-1.059.01-1.586-.5-1.586-1.34a4.545,4.545,0,0,1,.632-1.836,12.626,12.626,0,0,1-2.189,2.208,4.247,4.247,0,0,1-2.558.978c-.814,0-1.421-.39-1.421-1.269a4.615,4.615,0,0,1,.882-2.17c-1.1,1.213-2.959,3.437-5,3.437-.941,0-1.43-.487-1.43-1.289a4.4,4.4,0,0,1,.565-1.86c-.257.312-.544.634-.729.842-1.451,1.633-2.709,2.314-3.964,2.314a1.388,1.388,0,0,1-1.569-1.432,4.145,4.145,0,0,1,.375-1.464c-1.332,1.427-2.946,2.9-4.561,2.9-.95,0-1.338-.535-1.338-1.178a3.793,3.793,0,0,1,.527-1.647l-.527.549c-1.166,1.2-2.634,2.267-3.99,2.267-.883,0-1.433-.472-1.433-1.259a6.348,6.348,0,0,1,1.515-3.133l-.716.681c-2.865,2.728-6.747,5.189-10.591,5.189-2.742,0-3.616-1.213-3.616-2.646a3.908,3.908,0,0,1,.068-.65l-.473.633c-1.349,1.711-2.418,2.659-3.741,2.659-1.1,0-2.058-.541-2.058-1.507a4.069,4.069,0,0,1,.781-1.94c.93-1.533,3.487-5.33,5.417-8.093a9.631,9.631,0,0,1-5.131,1.414c-2.044,0-3.426-.541-4.15-1.433l-.006.005.021.04c.015.03.032.057.047.087s.033.058.048.088.032.058.048.087c.482.967,1.586,1.629,3.29,1.835L238.015,77.943l48.239-7.712,47.3,9.141,10.806-16.646c.048,0,.088.014.138.014a3.185,3.185,0,0,0,1.511-.345l-.188-.452Zm-24.829-6.482a.894.894,0,0,1-.992-.953,1.524,1.524,0,0,1,1.448-1.544.917.917,0,0,1,.955.989A1.5,1.5,0,0,1,320.979,55.464Z" transform="translate(0 0.043)" fill="#ce0e2d"/>
  </g>
</svg>
